<?xml version="1.0" encoding="UTF-8"?>
<!DOCTYPE svg PUBLIC "-//W3C//DTD SVG 1.1//EN" "http://www.w3.org/Graphics/SVG/1.1/DTD/svg11.dtd">
<svg xmlns="http://www.w3.org/2000/svg" version="1.1" width="662px" height="611px" style="shape-rendering:geometricPrecision; text-rendering:geometricPrecision; image-rendering:optimizeQuality; fill-rule:evenodd; clip-rule:evenodd" xmlns:xlink="http://www.w3.org/1999/xlink">
<g><path style="opacity:1" fill="#fefefe" d="M -0.5,-0.5 C 220.167,-0.5 440.833,-0.5 661.5,-0.5C 661.5,203.167 661.5,406.833 661.5,610.5C 440.833,610.5 220.167,610.5 -0.5,610.5C -0.5,406.833 -0.5,203.167 -0.5,-0.5 Z"/></g>
<g><path style="opacity:1" fill="#f4b631" d="M 305.5,17.5 C 377.67,13.4978 432.837,41.8312 471,102.5C 497.894,154.011 499.561,206.344 476,259.5C 439.782,325.874 383.616,357.374 307.5,354C 248.694,346.04 204.528,316.54 175,265.5C 144.143,200.881 149.477,139.548 191,81.5C 220.778,45.1936 258.945,23.8602 305.5,17.5 Z"/></g>
<g><path style="opacity:1" fill="#1f1d24" d="M 314.5,124.5 C 321.508,124.334 328.508,124.5 335.5,125C 337.64,125.973 339.307,127.473 340.5,129.5C 344.532,130.225 348.532,131.058 352.5,132C 353.701,132.903 354.535,134.069 355,135.5C 355.667,156.167 355.667,176.833 355,197.5C 354.215,199.286 353.049,200.786 351.5,202C 333.833,202.667 316.167,202.667 298.5,202C 296.951,200.786 295.785,199.286 295,197.5C 294.333,176.833 294.333,156.167 295,135.5C 295.833,133.333 297.333,131.833 299.5,131C 302.882,130.824 306.215,130.324 309.5,129.5C 310.882,127.451 312.548,125.785 314.5,124.5 Z"/></g>
<g><path style="opacity:1" fill="#e2a930" d="M 314.5,128.5 C 321.508,128.334 328.508,128.5 335.5,129C 337.478,131.497 337.978,134.331 337,137.5C 336.25,138.126 335.416,138.626 334.5,139C 328.167,139.667 321.833,139.667 315.5,139C 313.09,138.242 312.09,136.575 312.5,134C 312.395,131.822 313.061,129.988 314.5,128.5 Z"/></g>
<g><path style="opacity:1" fill="#f3b530" d="M 300.5,134.5 C 303.167,134.5 305.833,134.5 308.5,134.5C 308.642,137.617 309.976,140.117 312.5,142C 316.552,143.101 320.719,143.601 325,143.5C 329.281,143.601 333.448,143.101 337.5,142C 340.024,140.117 341.358,137.617 341.5,134.5C 345.007,133.994 348.174,134.66 351,136.5C 351.667,156.833 351.667,177.167 351,197.5C 342.409,198.16 333.742,198.493 325,198.5C 316.258,198.493 307.591,198.16 299,197.5C 298.333,177.167 298.333,156.833 299,136.5C 299.717,135.956 300.217,135.289 300.5,134.5 Z"/></g>
<g><path style="opacity:1" fill="#201d23" d="M 311.5,150.5 C 321.859,150.014 325.692,154.681 323,164.5C 317.963,169.712 312.963,169.712 308,164.5C 305.267,158.722 306.434,154.056 311.5,150.5 Z"/></g>
<g><path style="opacity:1" fill="#e9ae30" d="M 312.5,154.5 C 317.083,153.343 319.75,155.01 320.5,159.5C 318.624,164.706 315.457,165.706 311,162.5C 310.109,159.502 310.609,156.836 312.5,154.5 Z"/></g>
<g><path style="opacity:1" fill="#221f24" d="M 342.5,174.5 C 343.5,174.5 344.5,174.5 345.5,174.5C 342.928,180.241 338.761,184.575 333,187.5C 329.496,185.838 327.329,183.171 326.5,179.5C 329.179,179.673 331.513,180.673 333.5,182.5C 336.545,179.782 339.545,177.116 342.5,174.5 Z"/></g>
<g><path style="opacity:1" fill="#232024" d="M 241.5,226.5 C 244.463,226.151 246.796,227.151 248.5,229.5C 246.282,230.057 243.949,230.057 241.5,229.5C 241.281,230.675 241.614,231.675 242.5,232.5C 248.265,232.896 249.931,235.73 247.5,241C 244.331,241.978 241.497,241.478 239,239.5C 238.312,238.668 238.479,238.002 239.5,237.5C 241.962,240.053 244.295,240.053 246.5,237.5C 244.093,236.103 241.593,234.77 239,233.5C 238.162,230.519 238.995,228.186 241.5,226.5 Z"/></g>
<g><path style="opacity:1" fill="#252124" d="M 331.5,226.5 C 332.822,226.33 333.989,226.663 335,227.5C 336.401,231.871 337.901,236.204 339.5,240.5C 338.675,241.386 337.675,241.719 336.5,241.5C 336.5,240.5 336.5,239.5 336.5,238.5C 334.167,238.5 331.833,238.5 329.5,238.5C 329.5,239.5 329.5,240.5 329.5,241.5C 328.5,241.5 327.5,241.5 326.5,241.5C 327.572,236.285 329.238,231.285 331.5,226.5 Z"/></g>
<g><path style="opacity:1" fill="#221f24" d="M 349.5,226.5 C 350.809,228.571 351.475,231.071 351.5,234C 351.167,236.5 350.833,239 350.5,241.5C 347.998,241.379 345.332,241.212 342.5,241C 339.575,237.304 339.908,233.971 343.5,231C 345.235,230.349 346.902,230.515 348.5,231.5C 349.452,229.955 349.785,228.288 349.5,226.5 Z"/></g>
<g><path style="opacity:1" fill="#242024" d="M 257.5,232.5 C 256.5,232.5 255.5,232.5 254.5,232.5C 254.205,234.735 254.539,236.735 255.5,238.5C 256.091,239.151 256.757,239.818 257.5,240.5C 255.994,241.747 254.494,241.747 253,240.5C 252.822,237.458 251.988,234.625 250.5,232C 253.173,227.393 255.506,227.559 257.5,232.5 Z"/></g>
<g><path style="opacity:1" fill="#2e2725" d="M 279.5,228.5 C 284.591,229.636 285.591,232.303 282.5,236.5C 282.79,238.044 283.456,239.377 284.5,240.5C 282.994,241.747 281.494,241.747 280,240.5C 279.822,237.458 278.988,234.625 277.5,232C 278.429,230.923 279.096,229.756 279.5,228.5 Z"/></g>
<g><path style="opacity:1" fill="#433727" d="M 365.5,226.5 C 366.5,226.5 367.5,226.5 368.5,226.5C 368.5,227.5 368.5,228.5 368.5,229.5C 367.5,229.5 366.5,229.5 365.5,229.5C 365.5,228.5 365.5,227.5 365.5,226.5 Z"/></g>
<g><path style="opacity:1" fill="#292425" d="M 259.5,231.5 C 261.604,231.201 263.604,231.534 265.5,232.5C 264.675,233.386 263.675,233.719 262.5,233.5C 262.5,236.167 262.5,238.833 262.5,241.5C 261.5,241.5 260.5,241.5 259.5,241.5C 259.5,238.167 259.5,234.833 259.5,231.5 Z"/></g>
<g><path style="opacity:1" fill="#2f2825" d="M 269.5,230.5 C 271.936,230.317 274.103,230.984 276,232.5C 276.498,235.482 276.665,238.482 276.5,241.5C 273.223,241.784 270.057,241.451 267,240.5C 266.289,238.633 266.789,237.133 268.5,236C 270.256,235.798 271.922,235.298 273.5,234.5C 272.112,231.921 270.612,231.921 269,234.5C 267.413,233.154 267.58,231.821 269.5,230.5 Z"/></g>
<g><path style="opacity:1" fill="#221f24" d="M 296.5,236.5 C 293.753,236.187 291.086,236.52 288.5,237.5C 288.624,238.107 288.957,238.44 289.5,238.5C 291.463,239.168 293.463,239.502 295.5,239.5C 292.748,242.134 289.915,242.134 287,239.5C 285.366,232.637 287.866,229.97 294.5,231.5C 295.95,232.85 296.617,234.516 296.5,236.5 Z"/></g>
<g><path style="opacity:1" fill="#2d2725" d="M 301.5,230.5 C 304.272,231.371 306.938,231.371 309.5,230.5C 309.666,234.846 309.499,239.179 309,243.5C 307.701,244.98 306.034,245.646 304,245.5C 302.027,245.691 300.527,245.024 299.5,243.5C 301.655,243.162 303.989,243.162 306.5,243.5C 306.649,242.448 306.483,241.448 306,240.5C 300.471,241.639 298.138,239.306 299,233.5C 299.698,232.309 300.531,231.309 301.5,230.5 Z"/></g>
<g><path style="opacity:1" fill="#282324" d="M 319.5,230.5 C 320.497,230.47 321.164,230.97 321.5,232C 319.968,236.894 317.802,241.394 315,245.5C 314.5,245.333 314,245.167 313.5,245C 314.851,240.601 314.184,236.434 311.5,232.5C 312.325,231.614 313.325,231.281 314.5,231.5C 314.383,233.484 315.05,235.15 316.5,236.5C 317.509,234.482 318.509,232.482 319.5,230.5 Z"/></g>
<g><path style="opacity:1" fill="#ca982e" d="M 332.5,230.5 C 334.074,232.102 334.741,234.102 334.5,236.5C 333.022,236.762 331.689,236.429 330.5,235.5C 331.456,233.925 332.123,232.258 332.5,230.5 Z"/></g>
<g><path style="opacity:1" fill="#272224" d="M 353.5,230.5 C 354.5,230.5 355.5,230.5 356.5,230.5C 357.733,238.82 359.066,239.153 360.5,231.5C 361.675,231.281 362.675,231.614 363.5,232.5C 361.895,235.314 360.895,238.314 360.5,241.5C 359.325,241.719 358.325,241.386 357.5,240.5C 355.952,237.177 354.619,233.843 353.5,230.5 Z"/></g>
<g><path style="opacity:1" fill="#2d2724" d="M 365.5,230.5 C 366.5,230.5 367.5,230.5 368.5,230.5C 368.5,234.167 368.5,237.833 368.5,241.5C 367.5,241.5 366.5,241.5 365.5,241.5C 365.5,237.833 365.5,234.167 365.5,230.5 Z"/></g>
<g><path style="opacity:1" fill="#252124" d="M 372.5,230.5 C 375.022,230.128 377.022,230.961 378.5,233C 377.101,233.595 375.768,233.428 374.5,232.5C 373.614,233.325 373.281,234.325 373.5,235.5C 378.159,235.015 379.492,236.848 377.5,241C 375.231,241.758 373.064,241.591 371,240.5C 370.312,239.668 370.479,239.002 371.5,238.5C 373.198,239.681 374.865,239.681 376.5,238.5C 370.865,237.605 369.532,234.938 372.5,230.5 Z"/></g>
<g><path style="opacity:1" fill="#272224" d="M 383.5,230.5 C 391.302,230.787 393.302,234.287 389.5,241C 380.352,241.536 378.352,238.036 383.5,230.5 Z"/></g>
<g><path style="opacity:1" fill="#745b28" d="M 396.5,231.5 C 394.598,234.337 393.931,237.671 394.5,241.5C 393.518,238.038 393.185,234.371 393.5,230.5C 394.791,230.263 395.791,230.596 396.5,231.5 Z"/></g>
<g><path style="opacity:1" fill="#171823" d="M 396.5,231.5 C 396.833,231.5 397.167,231.5 397.5,231.5C 398.239,231.369 398.906,231.536 399.5,232C 398.584,232.278 397.918,232.778 397.5,233.5C 397.098,236.477 396.098,239.143 394.5,241.5C 393.931,237.671 394.598,234.337 396.5,231.5 Z"/></g>
<g><path style="opacity:1" fill="#82642a" d="M 397.5,231.5 C 399.5,230.167 401.5,230.167 403.5,231.5C 402.167,231.5 401.5,232.167 401.5,233.5C 400.167,233.5 398.833,233.5 397.5,233.5C 397.918,232.778 398.584,232.278 399.5,232C 398.906,231.536 398.239,231.369 397.5,231.5 Z"/></g>
<g><path style="opacity:1" fill="#262224" d="M 401.5,233.5 C 401.5,232.167 402.167,231.5 403.5,231.5C 404.228,233.512 405.062,235.512 406,237.5C 406.931,235.541 407.764,233.541 408.5,231.5C 409.5,230.167 410.5,230.167 411.5,231.5C 409.667,235.833 407.833,240.167 406,244.5C 405.107,245.711 404.274,245.711 403.5,244.5C 404.415,240.62 403.748,236.954 401.5,233.5 Z"/></g>
<g><path style="opacity:1" fill="#785d29" d="M 257.5,232.5 C 255.925,234.114 255.259,236.114 255.5,238.5C 255.259,236.114 255.925,234.114 257.5,232.5 Z"/></g>
<g><path style="opacity:1" fill="#e6ac30" d="M 301.5,233.5 C 303.167,233.5 304.833,233.5 306.5,233.5C 306.5,235.167 306.5,236.833 306.5,238.5C 304.833,238.5 303.167,238.5 301.5,238.5C 301.5,236.833 301.5,235.167 301.5,233.5 Z"/></g>
<g><path style="opacity:1" fill="#e3aa30" d="M 343.5,233.5 C 348.376,232.404 350.043,234.071 348.5,238.5C 344.072,240.052 342.405,238.386 343.5,233.5 Z"/></g>
<g><path style="opacity:1" fill="#e5ac30" d="M 383.5,233.5 C 385.199,233.34 386.866,233.506 388.5,234C 389.813,237.692 388.48,239.359 384.5,239C 383.594,237.301 383.261,235.467 383.5,233.5 Z"/></g>
<g><path style="opacity:1" fill="#9c772c" d="M 290.5,232.5 C 291.995,232.415 292.995,233.081 293.5,234.5C 291.833,235.833 290.167,235.833 288.5,234.5C 289.243,233.818 289.909,233.151 290.5,232.5 Z"/></g>
<g><path style="opacity:1" fill="#7a5f28" d="M 296.5,236.5 C 294.167,237.167 291.833,237.833 289.5,238.5C 288.957,238.44 288.624,238.107 288.5,237.5C 291.086,236.52 293.753,236.187 296.5,236.5 Z"/></g>
<g><path style="opacity:1" fill="#eeb230" d="M 269.5,237.5 C 273.588,237.218 274.088,237.885 271,239.5C 269.97,239.164 269.47,238.497 269.5,237.5 Z"/></g>
<g><path style="opacity:1" fill="#997c51" d="M 151.5,258.5 C 153.467,258.261 155.301,258.594 157,259.5C 177.83,305.997 211.997,338.497 259.5,357C 267.973,359.652 276.307,362.485 284.5,365.5C 265.625,427.866 275.625,485.033 314.5,537C 284.825,568.836 248.159,586.836 204.5,591C 131.944,594.314 77.4444,564.814 41,502.5C 14.0393,447.293 15.0393,392.627 44,338.5C 69.1438,297.53 104.977,270.863 151.5,258.5 Z"/></g>
<g><path style="opacity:1" fill="#151723" d="M 491.5,258.5 C 553.385,272.876 595.551,309.876 618,369.5C 635.689,430.39 624.689,485.39 585,534.5C 535.089,586.273 475.256,602.773 405.5,584C 330.849,555.249 292.183,500.749 289.5,420.5C 288.962,402.363 291.962,384.863 298.5,368C 365.252,373.986 420.752,352.152 465,302.5C 475.616,288.94 484.449,274.273 491.5,258.5 Z"/></g>
<g><path style="opacity:1" fill="#f9f7f4" d="M 139.5,372.5 C 147.174,372.334 154.841,372.5 162.5,373C 164.667,373.833 166.167,375.333 167,377.5C 167.497,380.146 167.664,382.813 167.5,385.5C 169.167,385.5 170.833,385.5 172.5,385.5C 171.581,380.187 173.247,376.021 177.5,373C 185.167,372.333 192.833,372.333 200.5,373C 202.667,373.833 204.167,375.333 205,377.5C 205.667,392.5 205.667,407.5 205,422.5C 204.606,425.893 202.773,428.06 199.5,429C 196.518,429.498 193.518,429.665 190.5,429.5C 191.006,433.986 189.672,437.819 186.5,441C 176.241,442.592 165.907,442.926 155.5,442C 151.59,438.776 149.923,434.609 150.5,429.5C 147.15,429.665 143.817,429.498 140.5,429C 137.572,427.74 135.739,425.573 135,422.5C 134.333,407.833 134.333,393.167 135,378.5C 135.804,375.854 137.304,373.854 139.5,372.5 Z"/></g>
<g><path style="opacity:1" fill="#9c7f56" d="M 140.5,376.5 C 147.508,376.334 154.508,376.5 161.5,377C 163.314,379.481 163.98,382.315 163.5,385.5C 157.796,384.436 153.629,386.436 151,391.5C 150.5,402.828 150.333,414.162 150.5,425.5C 147.482,425.665 144.482,425.498 141.5,425C 140.667,424.167 139.833,423.333 139,422.5C 138.333,408.167 138.333,393.833 139,379.5C 139.513,378.473 140.013,377.473 140.5,376.5 Z"/></g>
<g><path style="opacity:1" fill="#997d52" d="M 178.5,376.5 C 185.508,376.334 192.508,376.5 199.5,377C 200,377.5 200.5,378 201,378.5C 201.667,393.167 201.667,407.833 201,422.5C 200.5,423.667 199.667,424.5 198.5,425C 195.854,425.497 193.187,425.664 190.5,425.5C 190.938,413.424 190.438,401.424 189,389.5C 185.556,386.117 181.39,384.784 176.5,385.5C 176.065,382.162 176.732,379.162 178.5,376.5 Z"/></g>
<g><path style="opacity:1" fill="#9b7f55" d="M 157.5,389.5 C 165.84,389.334 174.173,389.5 182.5,390C 184.333,390.5 185.5,391.667 186,393.5C 186.667,407.167 186.667,420.833 186,434.5C 185.5,436.333 184.333,437.5 182.5,438C 179.183,438.498 175.85,438.665 172.5,438.5C 172.665,435.482 172.498,432.482 172,429.5C 171,428.167 170,428.167 169,429.5C 168.502,432.482 168.335,435.482 168.5,438.5C 164.486,438.666 160.486,438.499 156.5,438C 155.809,436.933 155.309,435.766 155,434.5C 154.333,420.5 154.333,406.5 155,392.5C 155.698,391.309 156.531,390.309 157.5,389.5 Z"/></g>
<g><path style="opacity:1" fill="#ebebec" d="M 442.5,389.5 C 454.268,389.043 465.935,389.543 477.5,391C 478.701,391.903 479.535,393.069 480,394.5C 480.928,401.94 480.594,409.274 479,416.5C 477.421,418.041 475.587,419.208 473.5,420C 463.5,420.667 453.5,420.667 443.5,420C 440,419.167 437.833,417 437,413.5C 436.333,407.5 436.333,401.5 437,395.5C 438.36,392.977 440.193,390.977 442.5,389.5 Z"/></g>
<g><path style="opacity:1" fill="#191b27" d="M 450.5,393.5 C 456.167,393.5 461.833,393.5 467.5,393.5C 468.167,398.833 471.167,401.833 476.5,402.5C 476.5,403.833 476.5,405.167 476.5,406.5C 471.167,407.167 468.167,410.167 467.5,415.5C 461.794,415.829 456.128,415.495 450.5,414.5C 448.612,409.938 445.279,407.271 440.5,406.5C 440.33,405.178 440.663,404.011 441.5,403C 446.727,401.94 449.727,398.773 450.5,393.5 Z"/></g>
<g><path style="opacity:1" fill="#252732" d="M 443.5,393.5 C 444.552,393.351 445.552,393.517 446.5,394C 442.349,400.138 441.349,399.971 443.5,393.5 Z"/></g>
<g><path style="opacity:1" fill="#262733" d="M 471.5,393.5 C 475.235,393.546 476.568,395.213 475.5,398.5C 473.389,397.395 472.055,395.729 471.5,393.5 Z"/></g>
<g><path style="opacity:1" fill="#e9e9ea" d="M 456.5,399.5 C 462.526,399.183 464.86,401.849 463.5,407.5C 458.705,411.779 455.371,410.779 453.5,404.5C 453.757,402.308 454.757,400.641 456.5,399.5 Z"/></g>
<g><path style="opacity:1" fill="#f4f1ec" d="M 161.5,402.5 C 167.167,402.5 172.833,402.5 178.5,402.5C 178.67,403.822 178.337,404.989 177.5,406C 172.5,406.667 167.5,406.667 162.5,406C 161.663,404.989 161.33,403.822 161.5,402.5 Z"/></g>
<g><path style="opacity:1" fill="#252632" d="M 457.5,403.5 C 459.337,403.639 459.67,404.306 458.5,405.5C 457.702,405.043 457.369,404.376 457.5,403.5 Z"/></g>
<g><path style="opacity:1" fill="#292b36" d="M 441.5,411.5 C 444.5,411.167 445.833,412.5 445.5,415.5C 442.5,415.833 441.167,414.5 441.5,411.5 Z"/></g>
<g><path style="opacity:1" fill="#22242f" d="M 475.5,410.5 C 476.918,412.988 476.084,414.654 473,415.5C 472.5,415.167 472,414.833 471.5,414.5C 472.549,412.784 473.882,411.451 475.5,410.5 Z"/></g>
<g><path style="opacity:1" fill="#ede7e0" d="M 162.5,411.5 C 167.511,411.334 172.511,411.501 177.5,412C 178.833,413.333 178.833,414.667 177.5,416C 172.5,416.667 167.5,416.667 162.5,416C 161.272,414.51 161.272,413.01 162.5,411.5 Z"/></g>
<g><path style="opacity:1" fill="#f0f0f1" d="M 426.5,426.5 C 431.742,425.271 435.575,426.937 438,431.5C 448.113,425.92 458.613,425.087 469.5,429C 471.628,430.667 472.961,432.834 473.5,435.5C 477.328,432.004 481.662,429.337 486.5,427.5C 495.113,429.96 496.613,434.626 491,441.5C 483.272,449.971 473.605,453.971 462,453.5C 455.824,452.914 449.657,452.247 443.5,451.5C 439.179,451.067 435.846,452.567 433.5,456C 428.88,457.538 425.713,456.038 424,451.5C 423.333,444.5 423.333,437.5 424,430.5C 424.662,429.016 425.496,427.683 426.5,426.5 Z"/></g>
<g><path style="opacity:1" fill="#181a26" d="M 428.5,430.5 C 430.144,430.286 431.644,430.62 433,431.5C 433.667,438.167 433.667,444.833 433,451.5C 431.333,452.833 429.667,452.833 428,451.5C 427.205,444.42 427.372,437.42 428.5,430.5 Z"/></g>
<g><path style="opacity:1" fill="#1a1c28" d="M 449.5,430.5 C 455.262,430.149 460.928,430.649 466.5,432C 468.155,433.444 468.822,435.278 468.5,437.5C 465.813,437.336 463.146,437.503 460.5,438C 459.663,439.011 459.33,440.178 459.5,441.5C 468.982,442.729 476.982,439.896 483.5,433C 485.473,432.505 487.473,432.338 489.5,432.5C 489.453,435.928 488.287,438.928 486,441.5C 478.908,446.776 470.908,449.442 462,449.5C 453.912,448.005 445.745,447.339 437.5,447.5C 437.335,443.818 437.501,440.152 438,436.5C 441.751,434.205 445.585,432.205 449.5,430.5 Z"/></g>
<g><path style="opacity:1" fill="#fbf9f8" d="M 136.5,470.5 C 140.007,469.994 143.174,470.66 146,472.5C 146.996,478.334 144.496,480.667 138.5,479.5C 138.799,481.604 138.466,483.604 137.5,485.5C 136.506,480.544 136.173,475.544 136.5,470.5 Z"/></g>
<g><path style="opacity:1" fill="#ede7df" d="M 169.5,469.5 C 173.31,470.754 173.31,471.754 169.5,472.5C 169.5,471.5 169.5,470.5 169.5,469.5 Z"/></g>
<g><path style="opacity:1" fill="#f3efea" d="M 199.5,471.5 C 200.5,471.5 201.5,471.5 202.5,471.5C 202.48,473.143 203.147,474.476 204.5,475.5C 201.943,478.494 201.943,481.494 204.5,484.5C 202.741,485.754 201.241,485.421 200,483.5C 199.9,480.563 199.067,477.896 197.5,475.5C 198.853,474.476 199.52,473.143 199.5,471.5 Z"/></g>
<g><path style="opacity:1" fill="#a48963" d="M 138.5,472.5 C 140.167,472.5 141.833,472.5 143.5,472.5C 143.5,474.167 143.5,475.833 143.5,477.5C 141.833,477.5 140.167,477.5 138.5,477.5C 138.5,475.833 138.5,474.167 138.5,472.5 Z"/></g>
<g><path style="opacity:1" fill="#f3f0eb" d="M 148.5,474.5 C 150.604,474.201 152.604,474.534 154.5,475.5C 153.758,476.287 152.925,476.953 152,477.5C 151.503,480.146 151.336,482.813 151.5,485.5C 150.5,485.5 149.5,485.5 148.5,485.5C 148.5,481.833 148.5,478.167 148.5,474.5 Z"/></g>
<g><path style="opacity:1" fill="#f3f0eb" d="M 158.5,474.5 C 164.83,473.666 167.663,476.333 167,482.5C 163.952,486.01 160.619,486.343 157,483.5C 154.788,480.021 155.288,477.021 158.5,474.5 Z"/></g>
<g><path style="opacity:1" fill="#fbf9f8" d="M 169.5,474.5 C 170.805,476.397 171.471,478.731 171.5,481.5C 171.333,483.833 171.167,486.167 171,488.5C 169.506,489.747 168.006,489.747 166.5,488.5C 167.242,487.713 168.075,487.047 169,486.5C 169.499,482.514 169.666,478.514 169.5,474.5 Z"/></g>
<g><path style="opacity:1" fill="#f6f3f0" d="M 176.5,474.5 C 181.836,473.185 184.503,475.185 184.5,480.5C 181.813,480.336 179.146,480.503 176.5,481C 177.354,482.022 178.354,482.855 179.5,483.5C 180.891,482.355 182.224,482.355 183.5,483.5C 178.277,486.986 174.943,485.652 173.5,479.5C 174.092,477.577 175.092,475.911 176.5,474.5 Z"/></g>
<g><path style="opacity:1" fill="#f3f0eb" d="M 188.5,474.5 C 191.482,474.104 194.149,474.771 196.5,476.5C 196.192,477.308 195.692,477.975 195,478.5C 192.136,475.674 189.969,476.174 188.5,480C 188.645,480.772 188.978,481.439 189.5,482C 191.936,481.947 194.269,482.113 196.5,482.5C 193.923,486.079 190.923,486.412 187.5,483.5C 185.992,480.231 186.325,477.231 188.5,474.5 Z"/></g>
<g><path style="opacity:1" fill="#a28760" d="M 177.5,476.5 C 178.978,476.238 180.311,476.571 181.5,477.5C 179.926,478.631 178.259,478.798 176.5,478C 177.056,477.617 177.389,477.117 177.5,476.5 Z"/></g>
<g><path style="opacity:1" fill="#9f845c" d="M 159.5,476.5 C 164.159,476.015 165.492,477.848 163.5,482C 158.728,482.81 157.395,480.977 159.5,476.5 Z"/></g>
<g><path style="opacity:1" fill="#e3e3e5" d="M 386.5,484.5 C 390.007,483.994 393.174,484.66 396,486.5C 396.591,487.483 396.257,488.15 395,488.5C 390.49,485.163 387.657,486.163 386.5,491.5C 387.862,496.851 390.862,497.851 395.5,494.5C 396.731,495.651 396.731,496.817 395.5,498C 386.894,500.732 383.061,497.566 384,488.5C 384.662,487.016 385.496,485.683 386.5,484.5 Z"/></g>
<g><path style="opacity:1" fill="#d9dadb" d="M 424.5,483.5 C 426.048,483.821 426.715,484.821 426.5,486.5C 423.752,486.598 423.086,485.598 424.5,483.5 Z"/></g>
<g><path style="opacity:1" fill="#d0d0d2" d="M 448.5,483.5 C 449.5,483.5 450.5,483.5 451.5,483.5C 451.5,488.833 451.5,494.167 451.5,499.5C 450.5,499.5 449.5,499.5 448.5,499.5C 448.5,494.167 448.5,488.833 448.5,483.5 Z"/></g>
<g><path style="opacity:1" fill="#e2e3e4" d="M 457.5,484.5 C 458.5,484.5 459.5,484.5 460.5,484.5C 460.5,488.5 460.5,492.5 460.5,496.5C 462.5,496.5 464.5,496.5 466.5,496.5C 466.5,497.5 466.5,498.5 466.5,499.5C 463.5,499.5 460.5,499.5 457.5,499.5C 457.5,494.5 457.5,489.5 457.5,484.5 Z"/></g>
<g><path style="opacity:1" fill="#ededee" d="M 500.5,484.5 C 501.805,486.397 502.471,488.731 502.5,491.5C 502.471,494.269 501.805,496.603 500.5,498.5C 495.647,500.697 492.647,499.197 491.5,494C 492.537,489.152 495.537,487.318 500.5,488.5C 500.5,487.167 500.5,485.833 500.5,484.5 Z"/></g>
<g><path style="opacity:1" fill="#a1a2a7" d="M 500.5,484.5 C 501.209,483.596 502.209,483.263 503.5,483.5C 503.5,488.833 503.5,494.167 503.5,499.5C 502.209,499.737 501.209,499.404 500.5,498.5C 501.805,496.603 502.471,494.269 502.5,491.5C 502.471,488.731 501.805,486.397 500.5,484.5 Z"/></g>
<g><path style="opacity:1" fill="#dedee0" d="M 505.5,483.5 C 509.31,484.754 509.31,485.754 505.5,486.5C 505.5,485.5 505.5,484.5 505.5,483.5 Z"/></g>
<g><path style="opacity:1" fill="#dadadc" d="M 429.5,485.5 C 430.5,485.5 431.5,485.5 432.5,485.5C 432.5,486.5 432.5,487.5 432.5,488.5C 436.5,489.167 436.5,489.833 432.5,490.5C 432.5,492.5 432.5,494.5 432.5,496.5C 433.5,496.5 434.5,496.5 435.5,496.5C 435.5,497.5 435.5,498.5 435.5,499.5C 432.762,500.035 430.928,499.035 430,496.5C 428.922,492.771 428.755,489.104 429.5,485.5 Z"/></g>
<g><path style="opacity:1" fill="#e7e7e8" d="M 410.5,488.5 C 419.178,486.187 422.512,489.187 420.5,497.5C 418.49,499.171 416.157,499.838 413.5,499.5C 413.5,500.833 413.5,502.167 413.5,503.5C 412.5,503.5 411.5,503.5 410.5,503.5C 410.5,498.5 410.5,493.5 410.5,488.5 Z"/></g>
<g><path style="opacity:1" fill="#e3e3e4" d="M 423.5,488.5 C 424.5,488.5 425.5,488.5 426.5,488.5C 426.5,492.167 426.5,495.833 426.5,499.5C 425.5,499.5 424.5,499.5 423.5,499.5C 423.5,495.833 423.5,492.167 423.5,488.5 Z"/></g>
<g><path style="opacity:1" fill="#e2e3e4" d="M 469.5,488.5 C 475.07,487.006 478.07,489.006 478.5,494.5C 475.813,494.336 473.146,494.503 470.5,495C 472.202,496.718 474.035,496.885 476,495.5C 478.167,497 478,498.167 475.5,499C 467.505,499.145 465.505,495.645 469.5,488.5 Z"/></g>
<g><path style="opacity:1" fill="#fafafb" d="M 489.5,490.5 C 489.813,493.247 489.48,495.914 488.5,498.5C 487.832,496.031 487.165,493.698 486.5,491.5C 485.5,490.167 484.5,490.167 483.5,491.5C 483.083,494.159 482.083,496.492 480.5,498.5C 480.5,495.167 480.5,491.833 480.5,488.5C 483.187,488.336 485.854,488.503 488.5,489C 489.056,489.383 489.389,489.883 489.5,490.5 Z"/></g>
<g><path style="opacity:1" fill="#e5e5e6" d="M 505.5,488.5 C 506.5,488.5 507.5,488.5 508.5,488.5C 508.5,492.167 508.5,495.833 508.5,499.5C 507.5,499.5 506.5,499.5 505.5,499.5C 505.5,495.833 505.5,492.167 505.5,488.5 Z"/></g>
<g><path style="opacity:1" fill="#e3e3e4" d="M 510.5,488.5 C 519.339,487.009 522.672,490.675 520.5,499.5C 519.5,499.5 518.5,499.5 517.5,499.5C 517.664,496.813 517.497,494.146 517,491.5C 516,490.167 515,490.167 514,491.5C 513.503,494.146 513.336,496.813 513.5,499.5C 512.5,499.5 511.5,499.5 510.5,499.5C 510.5,495.833 510.5,492.167 510.5,488.5 Z"/></g>
<g><path style="opacity:1" fill="#e8e8e9" d="M 524.5,488.5 C 527.5,488.5 530.5,488.5 533.5,488.5C 533.666,492.514 533.499,496.514 533,500.5C 529.647,504.255 526.147,504.422 522.5,501C 523.025,500.308 523.692,499.808 524.5,499.5C 528.078,502.592 529.911,501.925 530,497.5C 523.811,499.312 521.477,496.978 523,490.5C 523.717,489.956 524.217,489.289 524.5,488.5 Z"/></g>
<g><path style="opacity:1" fill="#232530" d="M 414.5,490.5 C 418.485,490.629 419.818,492.463 418.5,496C 416.866,496.494 415.199,496.66 413.5,496.5C 413.325,494.379 413.659,492.379 414.5,490.5 Z"/></g>
<g><path style="opacity:1" fill="#1d1f2b" d="M 471.5,490.5 C 473.103,490.312 474.437,490.812 475.5,492C 473.833,492.667 472.167,492.667 470.5,492C 471.056,491.617 471.389,491.117 471.5,490.5 Z"/></g>
<g><path style="opacity:1" fill="#8c8d93" d="M 407.5,490.5 C 408.477,493.287 408.81,496.287 408.5,499.5C 407.209,499.737 406.209,499.404 405.5,498.5C 407.369,496.365 408.036,493.698 407.5,490.5 Z"/></g>
<g><path style="opacity:1" fill="#1f212d" d="M 495.5,490.5 C 500.159,490.015 501.492,491.848 499.5,496C 494.728,496.81 493.395,494.977 495.5,490.5 Z"/></g>
<g><path style="opacity:1" fill="#2e303b" d="M 525.5,490.5 C 530.159,490.015 531.492,491.848 529.5,496C 525.266,496.267 523.933,494.434 525.5,490.5 Z"/></g>
<g><path style="opacity:1" fill="#ececed" d="M 407.5,490.5 C 408.036,493.698 407.369,496.365 405.5,498.5C 400.74,500.763 398.573,499.43 399,494.5C 400.916,493.072 403.083,492.072 405.5,491.5C 403.424,490.9 401.424,490.567 399.5,490.5C 400.348,489.009 401.681,488.342 403.5,488.5C 405.355,488.34 406.688,489.007 407.5,490.5 Z"/></g>
<g><path style="opacity:1" fill="#e5e5e6" d="M 438.5,488.5 C 441.365,488.055 443.865,488.722 446,490.5C 446.498,493.482 446.665,496.482 446.5,499.5C 444.403,498.647 442.403,498.647 440.5,499.5C 437.014,498.875 436.014,497.042 437.5,494C 439.5,493.167 441.5,492.333 443.5,491.5C 441.865,490.319 440.198,490.319 438.5,491.5C 437.438,490.575 437.438,489.575 438.5,488.5 Z"/></g>
<g><path style="opacity:1" fill="#818288" d="M 483.5,491.5 C 483.5,494.167 483.5,496.833 483.5,499.5C 482.209,499.737 481.209,499.404 480.5,498.5C 482.083,496.492 483.083,494.159 483.5,491.5 Z"/></g>
<g><path style="opacity:1" fill="#54565e" d="M 489.5,490.5 C 490.477,493.287 490.81,496.287 490.5,499.5C 489.167,499.5 487.833,499.5 486.5,499.5C 486.5,496.833 486.5,494.167 486.5,491.5C 487.165,493.698 487.832,496.031 488.5,498.5C 489.48,495.914 489.813,493.247 489.5,490.5 Z"/></g>
<g><path style="opacity:1" fill="#2e303b" d="M 440.5,494.5 C 442.355,494.272 443.188,494.939 443,496.5C 440.192,497.86 439.359,497.193 440.5,494.5 Z"/></g>
<g><path style="opacity:1" fill="#363742" d="M 401.5,494.5 C 402.978,494.238 404.311,494.571 405.5,495.5C 404.68,497.111 403.346,497.778 401.5,497.5C 401.5,496.5 401.5,495.5 401.5,494.5 Z"/></g>
<g><path style="opacity:1" fill="#f7f5f1" d="M 107.5,498.5 C 108.552,498.351 109.552,498.517 110.5,499C 111.622,501.124 113.122,502.957 115,504.5C 116.512,501.143 119.012,499.143 122.5,498.5C 122.5,503.5 122.5,508.5 122.5,513.5C 121.5,513.5 120.5,513.5 119.5,513.5C 119.665,510.15 119.498,506.817 119,503.5C 117.959,505.585 116.459,507.252 114.5,508.5C 113.01,506.874 111.51,505.208 110,503.5C 109.821,506.553 109.321,509.553 108.5,512.5C 107.507,507.88 107.173,503.214 107.5,498.5 Z"/></g>
<g><path style="opacity:1" fill="#f3f0eb" d="M 228.5,499.5 C 229.5,499.5 230.5,499.5 231.5,499.5C 231.48,501.143 232.147,502.476 233.5,503.5C 230.943,506.494 230.943,509.494 233.5,512.5C 231.741,513.754 230.241,513.421 229,511.5C 228.9,508.563 228.067,505.896 226.5,503.5C 227.63,502.378 228.297,501.044 228.5,499.5 Z"/></g>
<g><path style="opacity:1" fill="#f2eee8" d="M 126.5,502.5 C 129.365,502.055 131.865,502.722 134,504.5C 134.498,507.482 134.665,510.482 134.5,513.5C 131.397,513.33 128.23,512.996 125,512.5C 124.438,507.888 126.605,505.554 131.5,505.5C 129.865,504.319 128.198,504.319 126.5,505.5C 125.438,504.575 125.438,503.575 126.5,502.5 Z"/></g>
<g><path style="opacity:1" fill="#f1ede7" d="M 136.5,502.5 C 145.339,501.009 148.672,504.675 146.5,513.5C 145.5,513.5 144.5,513.5 143.5,513.5C 143.664,510.813 143.497,508.146 143,505.5C 141.989,504.663 140.822,504.33 139.5,504.5C 139.5,507.5 139.5,510.5 139.5,513.5C 138.5,513.5 137.5,513.5 136.5,513.5C 136.5,509.833 136.5,506.167 136.5,502.5 Z"/></g>
<g><path style="opacity:1" fill="#f6f3ef" d="M 161.5,502.5 C 164.5,502.5 167.5,502.5 170.5,502.5C 170.666,506.514 170.499,510.514 170,514.5C 166.792,518.446 163.625,518.446 160.5,514.5C 162.741,514.502 165.074,514.168 167.5,513.5C 159.951,512.731 157.951,509.064 161.5,502.5 Z"/></g>
<g><path style="opacity:1" fill="#f3f0eb" d="M 174.5,502.5 C 180.07,501.006 183.07,503.006 183.5,508.5C 180.753,508.187 178.086,508.52 175.5,509.5C 177.353,510.76 179.186,510.76 181,509.5C 182.824,510.749 182.657,511.915 180.5,513C 172.469,513.081 170.469,509.581 174.5,502.5 Z"/></g>
<g><path style="opacity:1" fill="#f5f2ed" d="M 185.5,502.5 C 190.699,502.786 195.699,503.119 200.5,503.5C 201.417,506.758 201.751,510.091 201.5,513.5C 200.5,513.5 199.5,513.5 198.5,513.5C 198.664,510.813 198.497,508.146 198,505.5C 197,504.167 196,504.167 195,505.5C 194.503,508.146 194.336,510.813 194.5,513.5C 193.5,513.5 192.5,513.5 191.5,513.5C 191.5,510.5 191.5,507.5 191.5,504.5C 190.178,504.33 189.011,504.663 188,505.5C 187.814,507.9 187.314,510.234 186.5,512.5C 185.513,509.232 185.18,505.898 185.5,502.5 Z"/></g>
<g><path style="opacity:1" fill="#f4f1ec" d="M 205.5,502.5 C 210.836,501.185 213.503,503.185 213.5,508.5C 211.076,508.192 208.743,508.526 206.5,509.5C 208.135,510.681 209.802,510.681 211.5,509.5C 213.271,510.035 213.604,510.869 212.5,512C 207.323,514.745 204.323,513.245 203.5,507.5C 203.437,505.486 204.103,503.819 205.5,502.5 Z"/></g>
<g><path style="opacity:1" fill="#f2efe9" d="M 215.5,502.5 C 218.572,502.183 221.572,502.516 224.5,503.5C 225.417,506.758 225.751,510.091 225.5,513.5C 224.5,513.5 223.5,513.5 222.5,513.5C 222.664,510.813 222.497,508.146 222,505.5C 221,504.167 220,504.167 219,505.5C 218.503,508.146 218.336,510.813 218.5,513.5C 217.5,513.5 216.5,513.5 215.5,513.5C 215.5,509.833 215.5,506.167 215.5,502.5 Z"/></g>
<g><path style="opacity:1" fill="#9f835b" d="M 163.5,504.5 C 167.35,504.701 168.35,506.534 166.5,510C 162.537,510.118 161.537,508.284 163.5,504.5 Z"/></g>
<g><path style="opacity:1" fill="#a48a63" d="M 175.5,504.5 C 177.429,504.231 179.095,504.731 180.5,506C 179.667,506.167 178.833,506.333 178,506.5C 176.624,506.316 175.791,505.649 175.5,504.5 Z"/></g>
<g><path style="opacity:1" fill="#a0855d" d="M 206.5,504.5 C 207.978,504.238 209.311,504.571 210.5,505.5C 209.833,505.833 209.167,506.167 208.5,506.5C 207.287,506.253 206.62,505.586 206.5,504.5 Z"/></g>
<g><path style="opacity:1" fill="#f1ede8" d="M 149.5,502.5 C 151.924,502.192 154.257,502.526 156.5,503.5C 157.417,506.758 157.751,510.091 157.5,513.5C 153.993,514.006 150.826,513.34 148,511.5C 147.316,510.216 147.483,509.049 148.5,508C 150.5,507.167 152.5,506.333 154.5,505.5C 153.078,504.453 151.578,504.453 150,505.5C 148.317,504.824 148.15,503.824 149.5,502.5 Z"/></g>
<g><path style="opacity:1" fill="#a88f6b" d="M 127.5,508.5 C 128.978,508.238 130.311,508.571 131.5,509.5C 130.68,511.111 129.346,511.778 127.5,511.5C 127.5,510.5 127.5,509.5 127.5,508.5 Z"/></g>
<g><path style="opacity:1" fill="#a48a63" d="M 151.5,508.5 C 153.355,508.272 154.188,508.939 154,510.5C 151.192,511.86 150.359,511.193 151.5,508.5 Z"/></g>
</svg>
