<svg width="80" height="80" viewBox="0 0 80 80" fill="none" xmlns="http://www.w3.org/2000/svg">
<g id="vuesax/linear/buildings">
<g id="vuesax/linear/buildings_2">
<g id="buildings">
<path id="Vector" d="M43.3337 73.3334H16.667C10.0003 73.3334 6.66699 70.0001 6.66699 63.3334V36.6667C6.66699 30.0001 10.0003 26.6667 16.667 26.6667H33.3337V63.3334C33.3337 70.0001 36.667 73.3334 43.3337 73.3334Z" stroke="#F5B731" stroke-width="4" stroke-miterlimit="10" stroke-linecap="round" stroke-linejoin="round"/>
<path id="Vector_2" d="M33.7003 13.3333C33.4336 14.3333 33.3337 15.4333 33.3337 16.6666V26.6666H16.667V19.9999C16.667 16.3333 19.667 13.3333 23.3337 13.3333H33.7003Z" stroke="#F5B731" stroke-width="4" stroke-miterlimit="10" stroke-linecap="round" stroke-linejoin="round"/>
<path id="Vector_3" d="M46.667 26.6667V43.3334" stroke="#F5B731" stroke-width="4" stroke-miterlimit="10" stroke-linecap="round" stroke-linejoin="round"/>
<path id="Vector_4" d="M60 26.6667V43.3334" stroke="#F5B731" stroke-width="4" stroke-miterlimit="10" stroke-linecap="round" stroke-linejoin="round"/>
<path id="Vector_5" d="M56.667 56.6665H50.0003C48.167 56.6665 46.667 58.1665 46.667 59.9998V73.3332H60.0003V59.9998C60.0003 58.1665 58.5003 56.6665 56.667 56.6665Z" stroke="#F5B731" stroke-width="4" stroke-miterlimit="10" stroke-linecap="round" stroke-linejoin="round"/>
<path id="Vector_6" d="M20 43.3335V56.6668" stroke="#F5B731" stroke-width="4" stroke-miterlimit="10" stroke-linecap="round" stroke-linejoin="round"/>
<path id="Vector_7" d="M33.333 63.3334V16.6667C33.333 10.0001 36.6663 6.66675 43.333 6.66675H63.333C69.9997 6.66675 73.333 10.0001 73.333 16.6667V63.3334C73.333 70.0001 69.9997 73.3334 63.333 73.3334H43.333C36.6663 73.3334 33.333 70.0001 33.333 63.3334Z" stroke="#F5B731" stroke-width="4" stroke-miterlimit="10" stroke-linecap="round" stroke-linejoin="round"/>
</g>
</g>
</g>
</svg>
