<svg width="80" height="80" viewBox="0 0 80 80" fill="none" xmlns="http://www.w3.org/2000/svg">
<path d="M56.667 68.3334H23.3337C13.3337 68.3334 6.66699 63.3334 6.66699 51.6667V28.3334C6.66699 16.6667 13.3337 11.6667 23.3337 11.6667H56.667C66.667 11.6667 73.3337 16.6667 73.3337 28.3334V51.6667C73.3337 63.3334 66.667 68.3334 56.667 68.3334Z" stroke="#F5B731" stroke-width="4" stroke-miterlimit="10" stroke-linecap="round" stroke-linejoin="round"/>
<path d="M40 50C45.5228 50 50 45.5228 50 40C50 34.4772 45.5228 30 40 30C34.4772 30 30 34.4772 30 40C30 45.5228 34.4772 50 40 50Z" stroke="#F5B731" stroke-width="4" stroke-miterlimit="10" stroke-linecap="round" stroke-linejoin="round"/>
<path d="M6.66699 29.9999H10.0003C20.0003 29.9999 23.3337 26.6666 23.3337 16.6666V13.3333" stroke="#F5B731" stroke-width="4" stroke-miterlimit="10" stroke-linecap="round" stroke-linejoin="round"/>
<path d="M73.3337 29.9999H70.0003C60.0003 29.9999 56.667 26.6666 56.667 16.6666V13.3333" stroke="#F5B731" stroke-width="4" stroke-miterlimit="10" stroke-linecap="round" stroke-linejoin="round"/>
<path d="M6.66699 50H10.0003C20.0003 50 23.3337 53.3333 23.3337 63.3333V66.6667" stroke="#F5B731" stroke-width="4" stroke-miterlimit="10" stroke-linecap="round" stroke-linejoin="round"/>
<path d="M73.3337 50H70.0003C60.0003 50 56.667 53.3333 56.667 63.3333V66.6667" stroke="#F5B731" stroke-width="4" stroke-miterlimit="10" stroke-linecap="round" stroke-linejoin="round"/>
</svg>
