<svg width="80" height="80" viewBox="0 0 80 80" fill="none" xmlns="http://www.w3.org/2000/svg">
<g id="vuesax/linear/money-send">
<g id="vuesax/linear/money-send_2">
<g id="Group">
<path id="Vector" d="M31.667 45.8334C31.667 49.0667 34.167 51.6667 37.2337 51.6667H43.5003C46.167 51.6667 48.3337 49.4 48.3337 46.5667C48.3337 43.5334 47.0004 42.4334 45.0337 41.7334L35.0003 38.2334C33.0337 37.5334 31.7004 36.4667 31.7004 33.4C31.7004 30.6 33.867 28.3 36.5336 28.3H42.8003C45.867 28.3 48.367 30.9 48.367 34.1334" stroke="#F5B731" stroke-width="4" stroke-linecap="round" stroke-linejoin="round"/>
<path id="Vector_2" d="M40 25V55" stroke="#F5B731" stroke-width="4" stroke-linecap="round" stroke-linejoin="round"/>
</g>
<path id="Vector_3" d="M73.3337 40.0001C73.3337 58.4001 58.4003 73.3334 40.0003 73.3334C21.6003 73.3334 6.66699 58.4001 6.66699 40.0001C6.66699 21.6001 21.6003 6.66675 40.0003 6.66675" stroke="#F5B731" stroke-width="4" stroke-linecap="round" stroke-linejoin="round"/>
<path id="Vector_4" d="M73.3333 20.0001V6.66675H60" stroke="#F5B731" stroke-width="4" stroke-linecap="round" stroke-linejoin="round"/>
<path id="Vector_5" d="M56.667 23.3334L73.3337 6.66675" stroke="#F5B731" stroke-width="4" stroke-linecap="round" stroke-linejoin="round"/>
</g>
</g>
</svg>
