<svg width="95" height="76" viewBox="0 0 95 76" fill="none" xmlns="http://www.w3.org/2000/svg">
<path id="&#226;&#128;&#157;" opacity="0.2" d="M54.0563 58.993C59.9437 57.5758 64.7606 54.9184 68.507 51.021C72.4319 47.1235 74.8404 42.5175 75.7324 37.2028H59.4084V0H95V22.8531C95 37.2028 91.5211 48.9837 84.5634 58.1958C77.6056 67.2308 67.4366 73.1655 54.0563 76V58.993ZM0 58.993C5.88732 57.5758 10.7042 55.007 14.4507 51.2867C18.1972 47.3893 20.6056 42.6946 21.6761 37.2028H5.35211V0H40.6761V22.8531C40.6761 37.2028 37.1972 48.9837 30.2394 58.1958C23.2817 67.2308 13.2019 73.1655 0 76V58.993Z" fill="#F5B731"/>
</svg>
